<?xml version="1.0" encoding="utf-8"?>
<!-- Generator: Adobe Illustrator 22.1.0, SVG Export Plug-In . SVG Version: 6.00 Build 0)  -->
<svg version="1.1" id="Layer_1" xmlns="http://www.w3.org/2000/svg" xmlns:xlink="http://www.w3.org/1999/xlink" x="0px" y="0px"
	 viewBox="0 0 100 19" style="enable-background:new 0 0 100 19;" xml:space="preserve">
<style type="text/css">
	.st0{fill:#FFFFFF;}
</style>
<g>
	<path class="st0" d="M7.4,13.4c0,1.6-1.2,3.4-3.6,3.4H0V5.1h3.2c2.3,0,3.4,1.4,3.4,3.1c0,1-0.4,1.7-1.1,2.3
		C6.7,10.9,7.4,12,7.4,13.4z M1.6,6.7v3.3h1.5c1.2,0,2-0.8,2-1.6c0-1-0.8-1.6-2-1.6L1.6,6.7L1.6,6.7z M5.8,13.3c0-1-0.8-1.9-2.1-1.9
		H1.6v3.7h2.1C5,15.2,5.8,14.4,5.8,13.3z"/>
	<path class="st0" d="M10.7,10.9c0-3.3,2.4-6,6-6s6,2.8,6,6c0,3.3-2.4,6-6,6C13.1,17,10.7,14.2,10.7,10.9z M21.1,10.9
		c0-2.4-1.7-4.5-4.4-4.5s-4.4,2.1-4.4,4.5s1.7,4.5,4.4,4.5S21.1,13.3,21.1,10.9z"/>
	<path class="st0" d="M36,5.1v11.8h-0.2l-7.6-8.2v8h-1.5V4.9h0.2l7.6,8.3V5.1H36L36,5.1z"/>
	<path class="st0" d="M56.7,13.4c0,1.6-1.2,3.4-3.6,3.4h-3.8V5.1h3.2c2.3,0,3.4,1.4,3.4,3.1c0,1-0.4,1.7-1.1,2.3
		C56,10.9,56.7,12,56.7,13.4z M50.8,6.7v3.3h1.5c1.2,0,2-0.8,2-1.6c0-1-0.8-1.6-2-1.6L50.8,6.7L50.8,6.7z M55.1,13.3
		c0-1-0.8-1.9-2.1-1.9h-2.1v3.7H53C54.3,15.2,55.1,14.4,55.1,13.3z"/>
	<path class="st0" d="M64.5,12.3h-1.5v4.5h-1.5V5.1h3.2c2.4,0,3.8,1.7,3.8,3.6c0,1.5-0.9,2.8-2.4,3.4l2.8,4.7h-1.7L64.5,12.3z
		 M62.9,10.8h1.5c1.3,0,2.3-0.9,2.3-2.1s-0.9-2.1-2.3-2.1h-1.5V10.8z"/>
	<path class="st0" d="M73.1,5.1h1.5v11.7h-1.5V5.1z"/>
	<path class="st0" d="M88.8,10.9c0,3.3-2.2,5.9-5.8,5.9H80V5.1H83C86.6,5.1,88.8,7.8,88.8,10.9z M87.2,10.9c0-2.4-1.5-4.3-4.3-4.3
		h-1.4v8.5H83C85.6,15.2,87.2,13.2,87.2,10.9z"/>
	<path class="st0" d="M95.1,6.7v3.4h3.7v1.5h-3.7v3.6h4.8v1.5h-6.3V5.1h6.3v1.5H95.1L95.1,6.7z M97.4,3.8h-1.3L97.6,1h1.7L97.4,3.8z
		"/>
</g>
</svg>
