<?xml version="1.0" encoding="utf-8"?>
<!-- Generator: Adobe Illustrator 22.1.0, SVG Export Plug-In . SVG Version: 6.00 Build 0)  -->
<svg version="1.1" id="Layer_1" xmlns="http://www.w3.org/2000/svg" xmlns:xlink="http://www.w3.org/1999/xlink" x="0px" y="0px"
	 viewBox="0 0 100 19" style="enable-background:new 0 0 100 19;" xml:space="preserve">
<g>
	<path d="M7.4,13.5c0,1.6-1.2,3.4-3.6,3.4H0V5.2h3.2c2.3,0,3.4,1.4,3.4,3.1c0,1-0.4,1.7-1.1,2.3C6.7,11,7.4,12.1,7.4,13.5z M1.7,6.7
		V10h1.5c1.2,0,2-0.8,2-1.6c0-1-0.8-1.6-2-1.6L1.7,6.7L1.7,6.7z M5.8,13.4c0-1-0.8-1.9-2.1-1.9H1.7v3.7h2.1
		C5,15.2,5.8,14.5,5.8,13.4z"/>
	<path d="M10.7,11c0-3.3,2.4-6,6-6s6,2.8,6,6c0,3.3-2.4,6-6,6C13.1,17.1,10.7,14.3,10.7,11z M21.1,11c0-2.4-1.7-4.5-4.4-4.5
		s-4.4,2.1-4.4,4.5s1.7,4.5,4.4,4.5S21.1,13.4,21.1,11z"/>
	<path d="M36,5.2V17h-0.2l-7.6-8.2v8h-1.5V5h0.2l7.6,8.3V5.2H36L36,5.2z"/>
	<path d="M56.8,13.5c0,1.6-1.2,3.4-3.6,3.4h-3.8V5.2h3.2c2.3,0,3.4,1.4,3.4,3.1c0,1-0.4,1.7-1.1,2.3C56,11,56.8,12.1,56.8,13.5z
		 M50.9,6.7V10h1.5c1.2,0,2-0.8,2-1.6c0-1-0.8-1.6-2-1.6L50.9,6.7L50.9,6.7z M55.1,13.4c0-1-0.8-1.9-2.1-1.9H51v3.7h2.1
		C54.4,15.2,55.1,14.5,55.1,13.4z"/>
	<path d="M64.5,12.4H63v4.5h-1.5V5.2h3.2c2.4,0,3.8,1.7,3.8,3.6c0,1.5-0.9,2.8-2.4,3.4l2.8,4.7h-1.7L64.5,12.4z M63,10.9h1.5
		c1.3,0,2.3-0.9,2.3-2.1c0-1.2-0.9-2.1-2.3-2.1H63V10.9z"/>
	<path d="M73.1,5.2h1.5v11.7h-1.5V5.2z"/>
	<path d="M88.9,11c0,3.3-2.2,5.9-5.8,5.9H80V5.2h3.1C86.7,5.2,88.9,7.8,88.9,11z M87.2,11c0-2.4-1.5-4.3-4.3-4.3h-1.4v8.5h1.5
		C85.7,15.2,87.2,13.3,87.2,11z"/>
	<path d="M95.2,6.7v3.4h3.7v1.5h-3.7v3.6h4.8v1.5h-6.3V5.2h6.3v1.5H95.2L95.2,6.7z M97.5,3.9h-1.3L97.7,1h1.7L97.5,3.9z"/>
</g>
</svg>
