<?xml version="1.0" encoding="utf-8"?>
<!-- Generator: Adobe Illustrator 22.1.0, SVG Export Plug-In . SVG Version: 6.00 Build 0)  -->
<svg version="1.1" id="Layer_1" xmlns="http://www.w3.org/2000/svg" xmlns:xlink="http://www.w3.org/1999/xlink" x="0px" y="0px"
	 viewBox="0 0 841.9 595.3" style="enable-background:new 0 0 841.9 595.3;" xml:space="preserve">
<g>
	<path d="M159.7,309c0,10.3-7.6,20.4-22.1,20.4h-23.2v-71h19.6c14,0,20.8,8.7,20.8,18.4c0,5.9-2.5,10.8-6.9,14.1
		C155,294,159.7,300.5,159.7,309z M124,267.8v20.1h9.2c7.3,0,11.8-4.7,11.8-10.2c0-5.8-4.4-9.8-11.7-9.8H124z M149.7,308.6
		c0-6.3-4.7-11.2-12.8-11.2H124v22.5h12.9C144.9,319.9,149.7,314.9,149.7,308.6z"/>
	<path d="M179.8,293.9c0-19.7,14.4-36.7,36.5-36.7c22,0,36.4,17,36.4,36.7c0,19.8-14.4,36.8-36.4,36.8
		C194.2,330.7,179.8,313.6,179.8,293.9z M243,293.9c0-14.5-10.8-27.2-26.8-27.2c-16,0-26.7,12.7-26.7,27.2
		c0,14.5,10.6,27.3,26.7,27.3C232.2,321.1,243,308.4,243,293.9z"/>
	<path d="M333.9,258.4v72.2h-1.3l-46.9-50v48.8h-9.5v-72.1h1.3l46.9,50.9v-49.8H333.9z"/>
	<path d="M460.4,309c0,10.3-7.6,20.4-22.1,20.4H415v-71h19.6c14,0,20.8,8.7,20.8,18.4c0,5.9-2.5,10.8-6.9,14.1
		C455.7,294,460.4,300.5,460.4,309z M424.7,267.8v20.1h9.2c7.3,0,11.8-4.7,11.8-10.2c0-5.8-4.4-9.8-11.7-9.8H424.7z M450.3,308.6
		c0-6.3-4.7-11.2-12.8-11.2h-12.9v22.5h12.9C445.6,319.9,450.3,314.9,450.3,308.6z"/>
	<path d="M507.6,302.1h-8.9v27.3h-9.6v-71h19.3c14.5,0,23,10.6,23,21.9c0,9.2-5.2,17.3-14.4,20.5l17.2,28.6h-10.9L507.6,302.1z
		 M498.7,292.8h9.2c8.1,0,13.7-5.2,13.7-12.5c0-7.4-5.6-12.5-13.7-12.5h-9.2V292.8z"/>
	<path d="M560.3,258.4h9.6v71h-9.6V258.4z"/>
	<path d="M656.2,293.7c0,19.7-13.3,35.7-35.6,35.7H602v-71h18.7C642.9,258.4,656.2,274.1,656.2,293.7z M646.5,293.7
		c0-14.5-9.5-25.9-25.8-25.9h-9.1v52.1h9.1C637,319.9,646.5,307.9,646.5,293.7z"/>
	<path d="M695.2,267.7v20.9h22.6v9.2h-22.6V320h29.3v9.3h-38.9v-71h38.9v9.3H695.2z M708.6,250.7h-8.2l9.6-17.2h10.4L708.6,250.7z"
		/>
</g>
</svg>
