<?xml version="1.0" encoding="utf-8"?>
<!-- Generator: Adobe Illustrator 22.1.0, SVG Export Plug-In . SVG Version: 6.00 Build 0)  -->
<svg version="1.1" id="Layer_1" xmlns="http://www.w3.org/2000/svg" xmlns:xlink="http://www.w3.org/1999/xlink" x="0px" y="0px"
	 viewBox="0 0 100 19" style="enable-background:new 0 0 100 19;" xml:space="preserve">
<style type="text/css">
	.st0{fill:#FFFFFF;}
</style>
<g>
	<path class="st0" d="M11.1,13.1c0,1.5-1.1,3.1-3.3,3.1H4.3V5.5h2.9c2.1,0,3.1,1.3,3.1,2.8c0,0.9-0.4,1.6-1,2.1
		C10.4,10.8,11.1,11.8,11.1,13.1z M5.8,6.9v3h1.4c1.1,0,1.8-0.7,1.8-1.5c0-0.9-0.7-1.5-1.8-1.5L5.8,6.9L5.8,6.9z M9.6,13
		c0-0.9-0.7-1.7-1.9-1.7H5.8v3.4h1.9C8.9,14.7,9.6,14,9.6,13z"/>
	<path class="st0" d="M14.1,10.8c0-3,2.2-5.5,5.5-5.5c3.3,0,5.5,2.6,5.5,5.5c0,3-2.2,5.5-5.5,5.5C16.3,16.4,14.1,13.8,14.1,10.8z
		 M23.6,10.8c0-2.2-1.6-4.1-4-4.1s-4,1.9-4,4.1s1.6,4.1,4,4.1C22,14.9,23.6,13,23.6,10.8z"/>
	<path class="st0" d="M37.3,5.5v10.8h-0.2l-7-7.5v7.3h-1.4V5.3h0.2l7,7.6V5.5L37.3,5.5L37.3,5.5z"/>
	<path class="st0" d="M56.3,13.1c0,1.5-1.1,3.1-3.3,3.1h-3.5V5.5h2.9c2.1,0,3.1,1.3,3.1,2.8c0,0.9-0.4,1.6-1,2.1
		C55.6,10.8,56.3,11.8,56.3,13.1z M50.9,6.9v3h1.4c1.1,0,1.8-0.7,1.8-1.5c0-0.9-0.7-1.5-1.8-1.5L50.9,6.9L50.9,6.9z M54.8,13
		c0-0.9-0.7-1.7-1.9-1.7h-1.9v3.4h1.9C54.1,14.7,54.8,14,54.8,13z"/>
	<path class="st0" d="M63.4,12.1H62v4.1h-1.4V5.5h2.9c2.2,0,3.5,1.6,3.5,3.3c0,1.4-0.8,2.6-2.2,3.1l2.6,4.3h-1.6L63.4,12.1z
		 M62,10.7h1.4c1.2,0,2.1-0.8,2.1-1.9c0-1.1-0.8-1.9-2.1-1.9H62V10.7z"/>
	<path class="st0" d="M71.3,5.5h1.4v10.7h-1.4V5.5z"/>
	<path class="st0" d="M85.7,10.8c0,3-2,5.4-5.3,5.4h-2.8V5.5h2.8C83.7,5.5,85.7,7.9,85.7,10.8z M84.2,10.8c0-2.2-1.4-3.9-3.9-3.9H79
		v7.8h1.4C82.8,14.7,84.2,12.9,84.2,10.8z"/>
	<path class="st0" d="M91.5,6.9V10h3.4v1.4h-3.4v3.3h4.4v1.4h-5.8V5.5h5.8v1.4L91.5,6.9L91.5,6.9z M93.6,4.3h-1.2l1.4-2.6h1.6
		L93.6,4.3z"/>
</g>
</svg>
